<?xml version="1.0" encoding="UTF-8"?>
<svg version="1.1" xmlns="http://www.w3.org/2000/svg" width="1024" height="1024">
<path d="M0 0 C337.92 0 675.84 0 1024 0 C1024 337.92 1024 675.84 1024 1024 C686.08 1024 348.16 1024 0 1024 C0 686.08 0 348.16 0 0 Z " fill="#FDFDFD" transform="translate(0,0)"/>
<path d="M0 0 C-0.72838895 25.89422712 -4.61164875 51.44459531 -10.25878906 76.68334961 C-11.05806991 80.2598418 -11.83970683 83.83973548 -12.61328125 87.421875 C-12.85216064 88.52499023 -13.09104004 89.62810547 -13.3371582 90.76464844 C-14.00433867 94.0211772 -14.57303217 97.28470782 -15.125 100.5625 C-19.48332187 122.33152736 -27.67082964 143.49434111 -36 164 C-36.30615234 164.76554199 -36.61230469 165.53108398 -36.92773438 166.31982422 C-46.11808491 189.16180849 -59.03212909 211.2370083 -75 230 C-75.87687212 231.06072694 -76.75313019 232.12196168 -77.62890625 233.18359375 C-88.22509455 245.91017549 -99.72299533 258.0422465 -113 268 C-113.58910156 268.44375977 -114.17820312 268.88751953 -114.78515625 269.34472656 C-142.01144044 289.68193581 -172.82847491 303.83076763 -205.65283203 312.38525391 C-208.18773262 313.049169 -210.71696096 313.73242477 -213.24609375 314.41796875 C-214.97641672 314.88335487 -216.70688206 315.34821198 -218.4375 315.8125 C-219.24896484 316.03180176 -220.06042969 316.25110352 -220.89648438 316.47705078 C-224.00727305 317.29990884 -226.76737989 318 -230 318 C-230 362.22 -230 406.44 -230 452 C-142.22 452 -54.44 452 36 452 C34.87205387 459.8956229 34.87205387 459.8956229 33.75 463.875 C33.481875 464.83019531 33.21375 465.78539062 32.9375 466.76953125 C32.09027845 469.68891552 31.22682723 472.60308029 30.35888672 475.51635742 C30.05748779 476.529198 30.05748779 476.529198 29.75 477.5625 C29.54004395 478.26802002 29.33008789 478.97354004 29.11376953 479.70043945 C27.17143698 486.29145907 25.39340653 492.92301302 23.625 499.5625 C21.02733483 509.31104119 18.28624856 519.00703648 15.42773438 528.68212891 C13.39515816 535.57870186 11.5011491 542.49766244 9.7265625 549.46484375 C9 552 9 552 8 553 C5.9358452 553.09790609 3.86827032 553.12371208 1.80179501 553.12304783 C1.1438638 553.12420167 0.48593259 553.12535552 -0.19193593 553.12654433 C-2.42404821 553.12921738 -4.65609014 553.12468323 -6.88819885 553.12025452 C-8.49360942 553.12069008 -10.09901992 553.12156471 -11.70443004 553.12284368 C-16.1373919 553.1250916 -20.57032983 553.12106332 -25.00328863 553.11606562 C-29.77564011 553.11176554 -34.54799014 553.11320723 -39.32034302 553.1139679 C-47.59587997 553.11449341 -55.87140907 553.11134372 -64.14694405 553.10573006 C-76.11212446 553.0976188 -88.07730105 553.09500022 -100.04248392 553.09374207 C-119.45304808 553.09155095 -138.86360804 553.08488927 -158.27416992 553.07543945 C-177.13484679 553.06626686 -195.99552252 553.05918528 -214.85620117 553.05493164 C-216.01787973 553.05466892 -217.17955828 553.05440619 -218.37643922 553.05413551 C-224.2039723 553.05283051 -230.03150538 553.0515668 -235.85903847 553.05032361 C-284.2393627 553.03994915 -332.61967919 553.02150987 -381 553 C-381.495 500.53 -381.495 500.53 -382 447 C-385.63 452.28 -389.26 457.56 -393 463 C-396.61581259 467.41049667 -400.23102109 471.73117176 -404 476 C-404.721875 476.84433594 -405.44375 477.68867187 -406.1875 478.55859375 C-409.8418755 482.79110288 -413.62509219 486.60556896 -417.90234375 490.20703125 C-419.34328907 491.43867725 -420.75113533 492.70978843 -422.12890625 494.01171875 C-439.66159399 510.53575779 -461.52048876 522.97840392 -483.7265625 532.06445312 C-485.2477449 532.69043798 -486.76344468 533.3299078 -488.2734375 533.98242188 C-505.2129274 541.2972016 -523.013475 545.19451542 -541 549 C-541.91233398 549.19754883 -542.82466797 549.39509766 -543.76464844 549.59863281 C-561.45695673 553.14535869 -579.42138645 553.34653782 -597.39794922 553.31567383 C-601.23043366 553.31251612 -605.06214158 553.33606016 -608.89453125 553.36132812 C-628.60875587 553.41246492 -648.00093698 552.04858788 -667.25 547.5625 C-668.67578369 547.24164429 -668.67578369 547.24164429 -670.13037109 546.91430664 C-675.98117806 545.56477671 -681.69000985 544.00169787 -687.33984375 541.953125 C-690.25996564 540.90685519 -693.20821909 540.05021202 -696.1875 539.1875 C-734.3146095 527.49457978 -772.91253756 503.18091612 -798 472 C-798.89663545 470.92666547 -799.7938264 469.85379489 -800.69140625 468.78125 C-827.03177267 436.96722695 -844.3222228 398.27798476 -853 358 C-853.16306641 357.27425781 -853.32613281 356.54851562 -853.49414062 355.80078125 C-858.31556643 334.23979843 -861.1797511 311.85027001 -861.1328125 289.7421875 C-861.13376923 288.71425079 -861.13472595 287.68631409 -861.13571167 286.62722778 C-861.1363869 284.46763039 -861.13457893 282.3080309 -861.13037109 280.1484375 C-861.12504692 276.90359753 -861.13032159 273.65889807 -861.13671875 270.4140625 C-861.14349711 253.91151652 -860.85706889 237.53443141 -858.375 221.1875 C-858.20532715 220.062229 -858.0356543 218.93695801 -857.86083984 217.77758789 C-849.54931454 165.558901 -828.70489497 117.45274711 -792 79 C-790.79923828 77.71996094 -790.79923828 77.71996094 -789.57421875 76.4140625 C-782.9362537 69.52622315 -775.62291247 63.73827278 -768 58 C-767.04867187 57.27683594 -766.09734375 56.55367188 -765.1171875 55.80859375 C-730.29497561 29.86959918 -688.77891676 16.14616189 -646 11 C-645.352659 10.91841644 -644.70531799 10.83683289 -644.0383606 10.7527771 C-630.95301169 9.12326259 -617.99430597 8.55827773 -604.8125 8.5625 C-603.29721207 8.56139725 -603.29721207 8.56139725 -601.75131226 8.56027222 C-540.14171375 8.67666125 -476.12893943 24.27539089 -429 66 C-428.22527344 66.66644531 -427.45054687 67.33289063 -426.65234375 68.01953125 C-416.23841671 77.14653397 -406.19978303 86.89828068 -397.5 97.6875 C-397.02506104 98.26330811 -396.55012207 98.83911621 -396.06079102 99.43237305 C-393.02114202 103.33270495 -393.02114202 103.33270495 -392.9375 105.97265625 C-394.55696882 109.06274565 -396.50458275 111.89664973 -398.5 114.75 C-403.42442791 121.96564247 -407.7782448 129.39167509 -411.94287109 137.06640625 C-412.93928466 138.88894562 -413.95968637 140.69548348 -414.98828125 142.5 C-431.07189601 171.08727622 -441.5618903 204.34664948 -448.41943359 236.32226562 C-448.98613903 238.93606935 -449.58967434 241.53836753 -450.20703125 244.140625 C-451.9169228 251.4190389 -453.42553524 258.52872453 -453.7265625 266.03125 C-454 268 -454 268 -456 270 C-456.03963867 269.27748047 -456.07927734 268.55496094 -456.12011719 267.81054688 C-458.58417676 224.70992473 -466.25406068 177.724634 -494 143 C-494.64582031 142.15308594 -495.29164063 141.30617188 -495.95703125 140.43359375 C-517.03701494 113.20008425 -547.04912614 98.28402535 -580.72436523 93.46728516 C-585.05985592 92.93872454 -589.35071346 92.82132862 -593.71484375 92.796875 C-594.93585533 92.78832489 -594.93585533 92.78832489 -596.18153381 92.77960205 C-597.89843471 92.77020904 -599.61535317 92.76364093 -601.33227539 92.75976562 C-603.89959149 92.7501421 -606.46607698 92.71909844 -609.03320312 92.6875 C-644.84976516 92.45712263 -677.43932418 105.87255598 -703 131 C-737.58525621 168.01323831 -748.55873125 221.13401029 -748.25 270.25 C-748.24556885 271.19620209 -748.2411377 272.14240417 -748.23657227 273.11727905 C-748.04670627 307.77987245 -743.9913198 342.90848366 -730 375 C-729.65356445 375.8137207 -729.30712891 376.62744141 -728.95019531 377.46582031 C-713.62340968 413.06939646 -687.63929093 441.67383342 -651.375 456.3125 C-614.21098917 470.62749068 -570.5803066 470.20868879 -534 454 C-522.27034862 448.64541068 -511.80264884 442.3857088 -502 434 C-501.00871094 433.17113281 -500.01742188 432.34226562 -498.99609375 431.48828125 C-486.17800439 420.30796602 -476.07452855 406.92225344 -468 392 C-467.48445557 391.05737305 -467.48445557 391.05737305 -466.95849609 390.09570312 C-457.02780645 371.73487853 -451.38048859 352.11005987 -445.8503418 332.06347656 C-445.2589117 329.93276601 -444.6283453 327.81269157 -443.96777344 325.70239258 C-442.82952137 321.34780312 -442.29385913 317.08827283 -441.81640625 312.62109375 C-441.60874205 310.79361774 -441.40105915 308.96614385 -441.19335938 307.13867188 C-440.87783573 304.29798297 -440.56464656 301.45704905 -440.25268555 298.6159668 C-439.14414214 288.59007978 -437.94174054 278.75448527 -435.66723633 268.91723633 C-434.77378178 265.01094713 -434.1606103 261.08483787 -433.5625 257.125 C-432.20125059 248.60096408 -430.25324666 240.32834631 -428 232 C-427.72671875 230.95714844 -427.4534375 229.91429687 -427.171875 228.83984375 C-414.42719309 182.09003327 -393.7251644 137.32325226 -360 102 C-358.7619455 100.59109398 -357.53175295 99.17520784 -356.3125 97.75 C-327.80567692 64.96715346 -286.08623468 41.01852256 -245 28 C-244.26152832 27.75830078 -243.52305664 27.51660156 -242.76220703 27.26757812 C-207.3763336 15.80234667 -170.27610921 13.13022556 -133.33319092 12.61212158 C-69.37538735 11.78542593 -69.37538735 11.78542593 -6.54296875 0.84765625 C-3 0 -3 0 0 0 Z " fill="#72BD30" transform="translate(924,207)"/>
<path d="M0 0 C1.51528793 -0.00110275 1.51528793 -0.00110275 3.06118774 -0.00222778 C64.67078625 0.11416125 128.68356057 15.71289089 175.8125 57.4375 C176.97458984 58.43716797 176.97458984 58.43716797 178.16015625 59.45703125 C188.57408329 68.58403397 198.61271697 78.33578068 207.3125 89.125 C207.78743896 89.70080811 208.26237793 90.27661621 208.75170898 90.86987305 C211.79135798 94.77020495 211.79135798 94.77020495 211.875 97.41015625 C210.25553118 100.50024565 208.30791725 103.33414973 206.3125 106.1875 C201.38807209 113.40314247 197.0342552 120.82917509 192.86962891 128.50390625 C191.87321534 130.32644562 190.85281363 132.13298348 189.82421875 133.9375 C173.74060399 162.52477622 163.2506097 195.78414948 156.39306641 227.75976562 C155.82636097 230.37356935 155.22282566 232.97586753 154.60546875 235.578125 C152.8955772 242.8565389 151.38696476 249.96622453 151.0859375 257.46875 C150.8125 259.4375 150.8125 259.4375 148.8125 261.4375 C148.77286133 260.71498047 148.73322266 259.99246094 148.69238281 259.24804688 C146.22832324 216.14742473 138.55843932 169.162134 110.8125 134.4375 C110.16667969 133.59058594 109.52085937 132.74367188 108.85546875 131.87109375 C87.77548506 104.63758425 57.76337386 89.72152535 24.08813477 84.90478516 C19.75264408 84.37622454 15.46178654 84.25882862 11.09765625 84.234375 C9.87664467 84.22582489 9.87664467 84.22582489 8.63096619 84.21710205 C6.91406529 84.20770904 5.19714683 84.20114093 3.48022461 84.19726562 C0.91290851 84.1876421 -1.65357698 84.15659844 -4.22070312 84.125 C-40.03726516 83.89462263 -72.62682418 97.31005598 -98.1875 122.4375 C-132.77275621 159.45073831 -143.74623125 212.57151029 -143.4375 261.6875 C-143.43306885 262.63370209 -143.4286377 263.57990417 -143.42407227 264.55477905 C-143.23420627 299.21737245 -139.1788198 334.34598366 -125.1875 366.4375 C-124.84106445 367.2512207 -124.49462891 368.06494141 -124.13769531 368.90332031 C-108.81090968 404.50689646 -82.82679093 433.11133342 -46.5625 447.75 C-9.39848917 462.06499068 34.2321934 461.64618879 70.8125 445.4375 C82.54215138 440.08291068 93.00985116 433.8232088 102.8125 425.4375 C103.80378906 424.60863281 104.79507812 423.77976562 105.81640625 422.92578125 C118.63449561 411.74546602 128.73797145 398.35975344 136.8125 383.4375 C137.32804443 382.49487305 137.32804443 382.49487305 137.85400391 381.53320312 C148.77178374 361.34735021 154.63772189 339.4065552 160.8125 317.4375 C161.1425 317.4375 161.4725 317.4375 161.8125 317.4375 C161.78286163 318.04790131 161.75322327 318.65830261 161.72268677 319.28720093 C160.79366283 339.15547405 160.65544942 358.99198379 160.68212891 378.87792969 C160.68790701 383.24483601 160.68447734 387.61168192 160.67855644 391.9785862 C160.67493482 395.3913722 160.67609539 398.80414394 160.67868423 402.21693039 C160.67934487 403.82832217 160.67855578 405.4397153 160.67620468 407.0511055 C160.66722532 414.90667415 160.70199415 422.64190329 161.8125 430.4375 C162.25678345 429.95994263 162.70106689 429.48238525 163.15881348 428.99035645 C170.21474683 421.40894074 177.29539167 413.88804637 184.66796875 406.61328125 C187.28908495 403.95397027 189.73719266 401.17713158 192.14453125 398.32421875 C196.031057 393.9279847 200.2028014 390.23072868 204.875 386.6875 C205.4328418 386.26355957 205.99068359 385.83961914 206.56542969 385.40283203 C207.72665244 384.52162276 208.8892631 383.64223957 210.05322266 382.76464844 C211.80351787 381.44427586 213.54858118 380.11722626 215.29296875 378.7890625 C223.67206986 372.4375 223.67206986 372.4375 224.8125 372.4375 C224.97572071 380.31375855 225.09958348 388.18961051 225.1751852 396.06714249 C225.21149793 399.72636504 225.26063092 403.38441876 225.34057617 407.04296875 C225.41744181 410.58332293 225.45865475 414.12256356 225.4766407 417.66368866 C225.49559834 419.65118709 225.55011313 421.63824616 225.60557556 423.62506104 C225.60956355 432.98096477 223.21048396 438.85508287 217.8125 446.4375 C217.37479782 447.07991638 216.93709564 447.72233276 216.48612976 448.38421631 C211.3533251 455.68461999 205.36698093 462.29805085 199.2578125 468.78125 C196.80594995 471.3792153 196.80594995 471.3792153 194.71875 474.078125 C192.98799776 476.22028555 191.28650135 477.91897971 189.1875 479.6875 C186.96843566 481.57390753 184.78478836 483.46369734 182.66796875 485.46484375 C165.13707657 501.98031799 143.28554008 514.41855172 121.0859375 523.50195312 C119.5647551 524.12793798 118.04905532 524.7674078 116.5390625 525.41992188 C99.5995726 532.7347016 81.799025 536.63201542 63.8125 540.4375 C62.90016602 540.63504883 61.98783203 540.83259766 61.04785156 541.03613281 C43.35554327 544.58285869 25.39111355 544.78403782 7.41455078 544.75317383 C3.58206634 544.75001612 -0.24964158 544.77356016 -4.08203125 544.79882812 C-23.79625587 544.84996492 -43.18843698 543.48608788 -62.4375 539 C-63.86328369 538.67914429 -63.86328369 538.67914429 -65.31787109 538.35180664 C-71.16867806 537.00227671 -76.87750985 535.43919787 -82.52734375 533.390625 C-85.44746564 532.34435519 -88.39571909 531.48771202 -91.375 530.625 C-129.5021095 518.93207978 -168.10003756 494.61841612 -193.1875 463.4375 C-194.08413545 462.36416547 -194.9813264 461.29129489 -195.87890625 460.21875 C-222.21927267 428.40472695 -239.5097228 389.71548476 -248.1875 349.4375 C-248.35056641 348.71175781 -248.51363281 347.98601562 -248.68164062 347.23828125 C-253.50306643 325.67729843 -256.3672511 303.28777001 -256.3203125 281.1796875 C-256.32126923 280.15175079 -256.32222595 279.12381409 -256.32321167 278.06472778 C-256.3238869 275.90513039 -256.32207893 273.7455309 -256.31787109 271.5859375 C-256.31254692 268.34109753 -256.31782159 265.09639807 -256.32421875 261.8515625 C-256.33099711 245.34901652 -256.04456889 228.97193141 -253.5625 212.625 C-253.39282715 211.499729 -253.2231543 210.37445801 -253.04833984 209.21508789 C-244.73681454 156.996401 -223.89239497 108.89024711 -187.1875 70.4375 C-185.98673828 69.15746094 -185.98673828 69.15746094 -184.76171875 67.8515625 C-178.1237537 60.96372315 -170.81041247 55.17577278 -163.1875 49.4375 C-162.23617187 48.71433594 -161.28484375 47.99117188 -160.3046875 47.24609375 C-125.48247561 21.30709918 -83.96641676 7.58366189 -41.1875 2.4375 C-40.540159 2.35591644 -39.89281799 2.27433289 -39.2258606 2.1902771 C-26.14051169 0.56076259 -13.18180597 -0.00422227 0 0 Z " fill="#353436" transform="translate(319.1875,215.5625)"/>
<path d="M0 0 C0 44.22 0 88.44 0 134 C87.78 134 175.56 134 266 134 C264.87205387 141.8956229 264.87205387 141.8956229 263.75 145.875 C263.481875 146.83019531 263.21375 147.78539062 262.9375 148.76953125 C262.09027845 151.68891552 261.22682723 154.60308029 260.35888672 157.51635742 C260.05748779 158.529198 260.05748779 158.529198 259.75 159.5625 C259.54004395 160.26802002 259.33008789 160.97354004 259.11376953 161.70043945 C257.17143698 168.29145907 255.39340653 174.92301302 253.625 181.5625 C251.02733483 191.31104119 248.28624856 201.00703648 245.42773438 210.68212891 C243.39515816 217.57870186 241.5011491 224.49766244 239.7265625 231.46484375 C239 234 239 234 238 235 C235.9358452 235.09790609 233.86827032 235.12371208 231.80179501 235.12304783 C231.1438638 235.12420167 230.48593259 235.12535552 229.80806407 235.12654433 C227.57595179 235.12921738 225.34390986 235.12468323 223.11180115 235.12025452 C221.50639058 235.12069008 219.90098008 235.12156471 218.29556996 235.12284368 C213.8626081 235.1250916 209.42967017 235.12106332 204.99671137 235.11606562 C200.22435989 235.11176554 195.45200986 235.11320723 190.67965698 235.1139679 C182.40412003 235.11449341 174.12859093 235.11134372 165.85305595 235.10573006 C153.88787554 235.0976188 141.92269895 235.09500022 129.95751608 235.09374207 C110.54695192 235.09155095 91.13639196 235.08488927 71.72583008 235.07543945 C52.86515321 235.06626686 34.00447748 235.05918528 15.14379883 235.05493164 C13.98212027 235.05466892 12.82044172 235.05440619 11.62356078 235.05413551 C5.7960277 235.05283051 -0.03150538 235.0515668 -5.85903847 235.05032361 C-54.23936188 235.03994915 -102.61968074 235.02232924 -151 235 C-151.153836 220.95315155 -151.30180339 206.90625188 -151.4429636 192.8592701 C-151.50867644 186.33730036 -151.57629129 179.81536171 -151.64819336 173.29345703 C-151.71746214 167.00414814 -151.78181261 160.7148067 -151.84269524 154.42541122 C-151.86684479 152.02112869 -151.89279242 149.61686355 -151.92053413 147.21261978 C-151.95896938 143.85547864 -151.99111703 140.49833356 -152.02172852 137.14111328 C-152.03467453 136.13842407 -152.04762054 135.13573486 -152.06095886 134.10266113 C-152.06799835 133.19118317 -152.07503784 132.2797052 -152.08229065 131.34060669 C-152.09473485 130.14872836 -152.09473485 130.14872836 -152.10743046 128.93277168 C-152 127 -152 127 -151 125 C-150.95645022 123.04993491 -150.97932363 121.09825796 -151.03271484 119.1484375 C-151.061185 117.91955811 -151.08965515 116.69067871 -151.11898804 115.42456055 C-151.13501446 114.76531586 -151.15104088 114.10607117 -151.16755295 113.42684937 C-151.25715994 109.18893434 -151.27539929 104.95000888 -151.30389977 100.71131897 C-151.33290586 96.99260835 -151.38859539 93.27814465 -151.50390625 89.56103516 C-152.21776947 65.56166222 -152.21776947 65.56166222 -148.57385254 59.70965576 C-145.20575715 56.29192995 -141.41560834 54.39767349 -136.94702148 52.77423096 C-133.69003739 51.47909481 -130.92900612 49.54020415 -128 47.625 C-94.73698742 27.68299436 -40.48883774 0 0 0 Z " fill="#4BA228" transform="translate(694,525)"/>
<path d="M0 0 C0.66 0.33 1.32 0.66 2 1 C0.97003906 1.70382812 -0.05992187 2.40765625 -1.12109375 3.1328125 C-11.21247683 10.10158344 -20.75049977 17.53518279 -30.12841797 25.43261719 C-32.70612116 27.59135114 -35.32139506 29.70048279 -37.9375 31.8125 C-42.30545067 35.37965971 -46.51051042 39.09783551 -50.6796875 42.89453125 C-52.70154184 44.72917685 -54.74678522 46.52768786 -56.8125 48.3125 C-64.86831985 55.33887431 -72.70307621 62.6101665 -80.19921875 70.23046875 C-81.94826145 71.9491593 -83.75560498 73.53896591 -85.625 75.125 C-94.12242214 82.44456165 -102.11972388 90.58728086 -109.36328125 99.14453125 C-111.31900088 101.36163584 -113.3955589 103.42375912 -115.5 105.5 C-119.54812803 109.50730657 -123.30889707 113.66476342 -127 118 C-127.89282159 119.04071438 -128.78608742 120.08104773 -129.6796875 121.12109375 C-131.72961794 123.50781786 -133.77596474 125.89755538 -135.8203125 128.2890625 C-137.88970698 130.7082138 -139.96777307 133.11938733 -142.0546875 135.5234375 C-148.49447689 142.95604948 -154.6914697 150.53525126 -160.70166016 158.31933594 C-161.9358501 159.91695977 -163.17673038 161.5094086 -164.41796875 163.1015625 C-174.95254733 176.6779362 -185.2316942 190.44286846 -194.59960938 204.85449219 C-196.19515124 207.29898694 -197.80836155 209.73139431 -199.421875 212.1640625 C-214.63526853 235.1834068 -228.97652957 258.80137074 -241.3125 283.5 C-241.79976562 284.4746521 -241.79976562 284.4746521 -242.296875 285.46899414 C-243.75893791 288.41690869 -245.16514813 291.36965799 -246.5078125 294.375 C-249.41089048 300.72052564 -252.36882219 304.76147023 -257.79296875 309.16015625 C-259.86372571 310.88639789 -261.52260827 312.62577439 -263.25 314.6875 C-266.46029462 318.49784969 -269.94633854 321.95302665 -273.5 325.4375 C-278.00804738 329.86724701 -282.10717538 334.35816012 -285.828125 339.48828125 C-286.21484375 339.98714844 -286.6015625 340.48601562 -287 341 C-287.33 341 -287.66 341 -288 341 C-288.32364592 335.98348819 -288.31147931 332.17098414 -286.328125 327.5234375 C-285.78043457 326.21608643 -285.78043457 326.21608643 -285.22167969 324.88232422 C-284.61694824 323.45557373 -284.61694824 323.45557373 -284 322 C-283.13328858 319.86544619 -282.26882942 317.72997691 -281.40625 315.59375 C-264.74108801 274.7869814 -245.01009417 236.00449761 -221 199 C-220.57799316 198.34773437 -220.15598633 197.69546875 -219.72119141 197.0234375 C-203.992116 172.80377604 -186.45330482 149.42966806 -166.94140625 128.12109375 C-165.09671329 126.10566462 -163.29243431 124.06191191 -161.5 122 C-160.92765625 121.34644531 -160.3553125 120.69289063 -159.765625 120.01953125 C-158.58337138 118.66726328 -157.40631622 117.31043366 -156.234375 115.94921875 C-150.87041719 109.83557392 -145.17806295 104.0712712 -139.4375 98.3125 C-138.2323877 97.10049927 -138.2323877 97.10049927 -137.00292969 95.86401367 C-132.72131367 91.59336941 -128.36477027 87.47846249 -123.7800293 83.53491211 C-121.36522908 81.45263959 -119.02949378 79.28852147 -116.6875 77.125 C-111.28484042 72.20405904 -105.69552272 67.57582625 -100 63 C-98.89122702 62.08809011 -97.78318686 61.17528866 -96.67578125 60.26171875 C-70.64650931 38.92660241 -41.90894104 22.01076802 -12.05078125 6.69580078 C-10.92414063 6.11685059 -9.7975 5.53790039 -8.63671875 4.94140625 C-7.62311279 4.42263916 -6.60950684 3.90387207 -5.56518555 3.36938477 C-2.87312372 1.98583246 -2.87312372 1.98583246 0 0 Z " fill="#FBFCFA" transform="translate(768,307)"/>
<path d="M0 0 C0 0.99 0 1.98 0 3 C-0.61875 3.2475 -1.2375 3.495 -1.875 3.75 C-4.1155326 4.80820031 -4.1155326 4.80820031 -4.92919922 6.86230469 C-6.10072197 9.20107651 -7.39651685 10.62567109 -9.2578125 12.453125 C-9.88300781 13.071875 -10.50820312 13.690625 -11.15234375 14.328125 C-11.80332031 14.96234375 -12.45429688 15.5965625 -13.125 16.25 C-13.78371094 16.8996875 -14.44242188 17.549375 -15.12109375 18.21875 C-16.74296643 19.81711727 -18.3693281 21.41061897 -20 23 C-20.66 22.34 -21.32 21.68 -22 21 C-19.08746667 18.05837714 -16.16926768 15.1224386 -13.25 12.1875 C-12.0125 10.93743164 -12.0125 10.93743164 -10.75 9.66210938 C-9.95078125 8.85966797 -9.1515625 8.05722656 -8.328125 7.23046875 C-7.5949707 6.49207764 -6.86181641 5.75368652 -6.10644531 4.99291992 C-4.16159961 3.15289032 -2.17626604 1.55478295 0 0 Z " fill="#3D3D3F" transform="translate(146,273)"/>
<path d="M0 0 C-2.15560327 4.82783324 -5.67180855 8.0018426 -9.375 11.6875 C-10.04789063 12.37650391 -10.72078125 13.06550781 -11.4140625 13.77539062 C-12.39632812 14.75862305 -12.39632812 14.75862305 -13.3984375 15.76171875 C-13.99317871 16.35944092 -14.58791992 16.95716309 -15.20068359 17.57299805 C-17.14732063 19.11683706 -18.57190081 19.59286755 -21 20 C-17.0060348 15.09312847 -12.6959047 10.55729437 -8.25 6.0625 C-7.67096924 5.47057861 -7.09193848 4.87865723 -6.49536133 4.26879883 C-2.2365407 0 -2.2365407 0 0 0 Z " fill="#7FC445" transform="translate(686,379)"/>
<path d="M0 0 C0.66 0.33 1.32 0.66 2 1 C-3.94 6.94 -9.88 12.88 -16 19 C-16.33 18.34 -16.66 17.68 -17 17 C-4.40740741 2.2037037 -4.40740741 2.2037037 0 0 Z " fill="#7AC13E" transform="translate(581,292)"/>
<path d="M0 0 C0.99 0.33 1.98 0.66 3 1 C0.69 3.31 -1.62 5.62 -4 8 C-4.66 7.34 -5.32 6.68 -6 6 C-4.02 4.02 -2.04 2.04 0 0 Z " fill="#434346" transform="translate(130,288)"/>
<path d="M0 0 C0.66 0.33 1.32 0.66 2 1 C-1.63 3.31 -5.26 5.62 -9 8 C-9.66 7.34 -10.32 6.68 -11 6 C-9.21385682 4.96953278 -7.42089982 3.95086764 -5.625 2.9375 C-4.62726562 2.36902344 -3.62953125 1.80054688 -2.6015625 1.21484375 C-1.74304688 0.81394531 -0.88453125 0.41304688 0 0 Z " fill="#CBEAB9" transform="translate(768,307)"/>
<path d="M0 0 C0.66 0 1.32 0 2 0 C2 2.31 2 4.62 2 7 C1.01 7.33 0.02 7.66 -1 8 C-0.67 5.36 -0.34 2.72 0 0 Z " fill="#3B3C40" transform="translate(477,543)"/>
<path d="M0 0 C0.99 0.33 1.98 0.66 3 1 C2.60196439 3.88575819 2.20990931 4.82189513 -0.0625 6.75 C-0.701875 7.1625 -1.34125 7.575 -2 8 C-1.34 5.36 -0.68 2.72 0 0 Z " fill="#505051" transform="translate(475,551)"/>
<path d="M0 0 C0.66 0 1.32 0 2 0 C1.67 2.64 1.34 5.28 1 8 C0.34 8 -0.32 8 -1 8 C-0.67 5.36 -0.34 2.72 0 0 Z " fill="#84C24D" transform="translate(493,451)"/>
</svg>
