<?xml version="1.0" encoding="UTF-8"?>
<svg version="1.1" xmlns="http://www.w3.org/2000/svg" width="1024" height="1024">
<path d="M0 0 C337.92 0 675.84 0 1024 0 C1024 337.92 1024 675.84 1024 1024 C686.08 1024 348.16 1024 0 1024 C0 686.08 0 348.16 0 0 Z " fill="#FDFDFD" transform="translate(0,0)"/>
<path d="M0 0 C0.25733919 9.39928944 -0.48104568 18.388264 -1.8125 27.6875 C-1.99853006 29.02370714 -2.18415355 30.35997095 -2.36938477 31.69628906 C-3.7392158 41.49665893 -5.22195904 51.26557419 -7 61 C-7.16580566 61.92570801 -7.33161133 62.85141602 -7.50244141 63.80517578 C-17.42170489 118.84251395 -33.54081259 175.88849118 -68 221 C-68.80824219 222.08087891 -68.80824219 222.08087891 -69.6328125 223.18359375 C-82.16763496 239.68474892 -96.38117647 255.53588235 -113 268 C-113.58910156 268.44375977 -114.17820312 268.88751953 -114.78515625 269.34472656 C-142.01144044 289.68193581 -172.82847491 303.83076763 -205.65283203 312.38525391 C-208.18773262 313.049169 -210.71696096 313.73242477 -213.24609375 314.41796875 C-214.97641672 314.88335487 -216.70688206 315.34821198 -218.4375 315.8125 C-219.24896484 316.03180176 -220.06042969 316.25110352 -220.89648438 316.47705078 C-224.00727305 317.29990884 -226.76737989 318 -230 318 C-230 362.22 -230 406.44 -230 452 C-142.22 452 -54.44 452 36 452 C35.28218617 457.02469679 34.42464587 461.79228358 33.1875 466.6875 C33.03474609 467.31849609 32.88199219 467.94949219 32.72460938 468.59960938 C31.69504341 472.7138038 30.44477654 476.71150941 29.078125 480.7265625 C26.96186506 486.98087082 25.23361668 493.30208024 23.5625 499.6875 C21.4305872 507.72408943 19.24752117 515.73196303 16.8527832 523.6940918 C14.7465849 530.74172189 12.85086501 537.84628435 10.96655273 544.95605469 C10.72493408 545.85743164 10.48331543 546.75880859 10.234375 547.6875 C10.02006836 548.49574219 9.80576172 549.30398438 9.58496094 550.13671875 C9 552 9 552 8 553 C5.9358452 553.09790609 3.86827032 553.12371208 1.80179501 553.12304783 C1.1438638 553.12420167 0.48593259 553.12535552 -0.19193593 553.12654433 C-2.42404821 553.12921738 -4.65609014 553.12468323 -6.88819885 553.12025452 C-8.49360942 553.12069008 -10.09901992 553.12156471 -11.70443004 553.12284368 C-16.1373919 553.1250916 -20.57032983 553.12106332 -25.00328863 553.11606562 C-29.77564011 553.11176554 -34.54799014 553.11320723 -39.32034302 553.1139679 C-47.59587997 553.11449341 -55.87140907 553.11134372 -64.14694405 553.10573006 C-76.11212446 553.0976188 -88.07730105 553.09500022 -100.04248392 553.09374207 C-119.45304808 553.09155095 -138.86360804 553.08488927 -158.27416992 553.07543945 C-177.13484679 553.06626686 -195.99552252 553.05918528 -214.85620117 553.05493164 C-216.01787973 553.05466892 -217.17955828 553.05440619 -218.37643922 553.05413551 C-224.2039723 553.05283051 -230.03150538 553.0515668 -235.85903847 553.05032361 C-284.2393627 553.03994915 -332.61967919 553.02150987 -381 553 C-381.495 500.53 -381.495 500.53 -382 447 C-385.63 452.28 -389.26 457.56 -393 463 C-396.61581259 467.41049667 -400.23102109 471.73117176 -404 476 C-404.721875 476.84433594 -405.44375 477.68867187 -406.1875 478.55859375 C-409.8418755 482.79110288 -413.62509219 486.60556896 -417.90234375 490.20703125 C-419.34328907 491.43867725 -420.75113533 492.70978843 -422.12890625 494.01171875 C-449.46860094 519.77857144 -487.46737978 537.44152685 -524 545 C-526.20953168 545.51572593 -528.41795231 546.03624532 -530.625 546.5625 C-532.74961999 547.04334881 -534.87462396 547.52250404 -537 548 C-538.63001953 548.38671875 -538.63001953 548.38671875 -540.29296875 548.78125 C-559.84399587 553.12110064 -580.04699726 553.35320907 -599.99072266 553.31567383 C-603.49803482 553.31250178 -607.00450896 553.33614741 -610.51171875 553.36132812 C-670.02542007 553.52837354 -732.94503229 534.22066206 -777.14453125 493 C-778.25428526 491.87772055 -779.35307838 490.74443211 -780.4375 489.59765625 C-782.16063131 487.83575449 -783.98991996 486.27435449 -785.875 484.6875 C-821.54906999 453.65174121 -843.26468424 403.23248124 -853 358 C-853.16306641 357.26894043 -853.32613281 356.53788086 -853.49414062 355.78466797 C-856.55722334 341.97498325 -858.55339095 328.06780027 -860 314 C-860.14791992 312.63210327 -860.14791992 312.63210327 -860.29882812 311.23657227 C-861.26754872 300.86834205 -861.15072072 290.47713373 -861.13037109 280.07299805 C-861.12504041 276.83702852 -861.13032696 273.60119953 -861.13671875 270.36523438 C-861.14350398 253.87957317 -860.85609658 237.51753321 -858.375 221.1875 C-858.20387695 220.05860352 -858.03275391 218.92970703 -857.85644531 217.76660156 C-847.88647528 155.35561878 -819.32546586 96.5129635 -768 58 C-766.57494141 56.9171875 -766.57494141 56.9171875 -765.12109375 55.8125 C-730.23773303 29.81500264 -688.94433142 15.95647927 -646 11 C-645.31887146 10.91559662 -644.63774292 10.83119324 -643.93597412 10.74423218 C-631.0698712 9.15318973 -618.33578751 8.55823613 -605.375 8.5625 C-603.89764374 8.56139725 -603.89764374 8.56139725 -602.39044189 8.56027222 C-540.53919912 8.6799395 -476.33857677 24.08979291 -429 66 C-428.22527344 66.66644531 -427.45054687 67.33289063 -426.65234375 68.01953125 C-416.23841671 77.14653397 -406.19978303 86.89828068 -397.5 97.6875 C-397.02506104 98.26330811 -396.55012207 98.83911621 -396.06079102 99.43237305 C-393.02114202 103.33270495 -393.02114202 103.33270495 -392.9375 105.97265625 C-394.55696882 109.06274565 -396.50458275 111.89664973 -398.5 114.75 C-403.42442791 121.96564247 -407.7782448 129.39167509 -411.94287109 137.06640625 C-412.93928466 138.88894562 -413.95968637 140.69548348 -414.98828125 142.5 C-431.51633762 171.87723389 -442.13576494 206.1163306 -449 239 C-449.30091553 240.40765625 -449.30091553 240.40765625 -449.60791016 241.84375 C-452.18060983 253.91282734 -452.18060983 253.91282734 -453.64526367 266.15234375 C-454 268 -454 268 -456 270 C-456.03440186 269.26813477 -456.06880371 268.53626953 -456.10424805 267.78222656 C-458.62890243 217.41439305 -470.2508773 162.70309137 -508.171875 126.515625 C-531.94251344 105.37157645 -561.70146657 92.97625618 -593.71484375 92.796875 C-594.93585533 92.78832489 -594.93585533 92.78832489 -596.18153381 92.77960205 C-597.89843471 92.77020904 -599.61535317 92.76364093 -601.33227539 92.75976562 C-603.89959149 92.7501421 -606.46607698 92.71909844 -609.03320312 92.6875 C-644.84976516 92.45712263 -677.43932418 105.87255598 -703 131 C-737.74618417 168.18546387 -748.56990433 221.49541752 -748.25 270.8125 C-748.24556885 271.73252808 -748.2411377 272.65255615 -748.23657227 273.60046387 C-748.04254043 308.08589054 -743.91603952 343.08115203 -730 375 C-729.65356445 375.8137207 -729.30712891 376.62744141 -728.95019531 377.46582031 C-713.54017595 413.26274543 -687.75903315 441.04565484 -651.6875 456.25 C-612.97228456 470.93648847 -569.98619838 469.37261458 -532 453 C-520.97244371 447.94932459 -511.24257728 441.83068165 -502 434 C-501.00613281 433.16984375 -500.01226562 432.3396875 -498.98828125 431.484375 C-486.17746366 420.29793559 -476.07424368 406.92172697 -468 392 C-467.48445557 391.05737305 -467.48445557 391.05737305 -466.95849609 390.09570312 C-452.76373011 363.8510396 -443.86468131 333.21771116 -440.83837891 303.62060547 C-440.07060944 296.22167499 -439.0490837 288.86376984 -438 281.5 C-437.75068726 279.72846558 -437.75068726 279.72846558 -437.49633789 277.92114258 C-436.53433842 271.22973355 -435.42700535 264.6077953 -434 258 C-433.79971191 257.06833008 -433.59942383 256.13666016 -433.39306641 255.17675781 C-421.40456979 200.30323637 -401.21836549 144.96855805 -361.6171875 103.73046875 C-359.39729134 101.41448753 -357.27444905 99.05977389 -355.1875 96.625 C-310.78986372 45.47120168 -239.04952046 19.11675595 -173 14 C-159.78343357 13.07281527 -146.57963809 12.79803787 -133.33456421 12.61239624 C-68.70649625 11.68851073 -68.70649625 11.68851073 -5.21948242 0.48730469 C-3 0 -3 0 0 0 Z " fill="#979797" transform="translate(924,207)"/>
<path d="M0 0 C1.47735626 -0.00110275 1.47735626 -0.00110275 2.98455811 -0.00222778 C64.83580088 0.1174395 129.03642323 15.52729291 176.375 57.4375 C177.53708984 58.43716797 177.53708984 58.43716797 178.72265625 59.45703125 C189.13658329 68.58403397 199.17521697 78.33578068 207.875 89.125 C208.34993896 89.70080811 208.82487793 90.27661621 209.31420898 90.86987305 C212.35385798 94.77020495 212.35385798 94.77020495 212.4375 97.41015625 C210.81803118 100.50024565 208.87041725 103.33414973 206.875 106.1875 C201.95057209 113.40314247 197.5967552 120.82917509 193.43212891 128.50390625 C192.43571534 130.32644562 191.41531363 132.13298348 190.38671875 133.9375 C173.85866238 163.31473389 163.23923506 197.5538306 156.375 230.4375 C156.07408447 231.84515625 156.07408447 231.84515625 155.76708984 233.28125 C153.19439017 245.35032734 153.19439017 245.35032734 151.72973633 257.58984375 C151.375 259.4375 151.375 259.4375 149.375 261.4375 C149.34059814 260.70563477 149.30619629 259.97376953 149.27075195 259.21972656 C146.74609757 208.85189305 135.1241227 154.14059137 97.203125 117.953125 C73.43248656 96.80907645 43.67353343 84.41375618 11.66015625 84.234375 C10.43914467 84.22582489 10.43914467 84.22582489 9.19346619 84.21710205 C7.47656529 84.20770904 5.75964683 84.20114093 4.04272461 84.19726562 C1.47540851 84.1876421 -1.09107698 84.15659844 -3.65820312 84.125 C-39.47476516 83.89462263 -72.06432418 97.31005598 -97.625 122.4375 C-132.37118417 159.62296387 -143.19490433 212.93291752 -142.875 262.25 C-142.87056885 263.17002808 -142.8661377 264.09005615 -142.86157227 265.03796387 C-142.66754043 299.52339054 -138.54103952 334.51865203 -124.625 366.4375 C-124.27856445 367.2512207 -123.93212891 368.06494141 -123.57519531 368.90332031 C-108.16517595 404.70024543 -82.38403315 432.48315484 -46.3125 447.6875 C-7.59728456 462.37398847 35.38880162 460.81011458 73.375 444.4375 C84.40255629 439.38682459 94.13242272 433.26818165 103.375 425.4375 C104.36886719 424.60734375 105.36273438 423.7771875 106.38671875 422.921875 C119.19753634 411.73543559 129.30075632 398.35922697 137.375 383.4375 C137.89054443 382.49487305 137.89054443 382.49487305 138.41650391 381.53320312 C149.33428374 361.34735021 155.20022189 339.4065552 161.375 317.4375 C161.705 317.4375 162.035 317.4375 162.375 317.4375 C162.34536163 318.10092407 162.31572327 318.76434814 162.28518677 319.44787598 C161.54795959 336.37031974 161.21583404 353.26070317 161.24462891 370.19873047 C161.24999772 373.93591361 161.2446345 377.67297665 161.23828125 381.41015625 C161.23426455 397.77257455 161.64475162 414.09164807 162.375 430.4375 C162.8387352 429.94503784 163.3024704 429.45257568 163.78025818 428.94519043 C164.70972008 427.95815125 164.70972008 427.95815125 165.65795898 426.95117188 C166.30433319 426.26466553 166.9507074 425.57815918 167.6166687 424.87084961 C168.94957545 423.45557586 170.28327496 422.04104864 171.61743164 420.62695312 C175.46240878 416.53430144 179.21830418 412.38101292 182.89086914 408.1328125 C186.92874363 403.52037616 191.48521946 399.52435061 196.09375 395.5 C197.65517485 394.08830082 199.16470304 392.61763469 200.625 391.1015625 C204.15152051 387.68524575 207.96328526 384.771621 211.875 381.8125 C212.99455078 380.95398438 212.99455078 380.95398438 214.13671875 380.078125 C217.78675646 377.3002202 221.42831233 374.78208352 225.375 372.4375 C225.53822071 380.31375855 225.66208348 388.18961051 225.7376852 396.06714249 C225.77399793 399.72636504 225.82313092 403.38441876 225.90307617 407.04296875 C225.97994181 410.58332293 226.02115475 414.12256356 226.0391407 417.66368866 C226.05809834 419.65118709 226.11261313 421.63824616 226.16807556 423.62506104 C226.17206355 432.98096477 223.77298396 438.85508287 218.375 446.4375 C217.93729782 447.07991638 217.49959564 447.72233276 217.04862976 448.38421631 C211.9158251 455.68461999 205.92948093 462.29805085 199.8203125 468.78125 C197.36844995 471.3792153 197.36844995 471.3792153 195.28125 474.078125 C193.55049776 476.22028555 191.84900135 477.91897971 189.75 479.6875 C187.53093566 481.57390753 185.34728836 483.46369734 183.23046875 485.46484375 C155.89004766 511.22166293 117.90196374 528.88019716 81.375 536.4375 C79.16546832 536.95322593 76.95704769 537.47374532 74.75 538 C72.62538001 538.48084881 70.50037604 538.96000404 68.375 539.4375 C66.74498047 539.82421875 66.74498047 539.82421875 65.08203125 540.21875 C45.53100413 544.55860064 25.32800274 544.79070907 5.38427734 544.75317383 C1.87696518 544.75000178 -1.62950896 544.77364741 -5.13671875 544.79882812 C-64.65042007 544.96587354 -127.57003229 525.65816206 -171.76953125 484.4375 C-172.87928526 483.31522055 -173.97807838 482.18193211 -175.0625 481.03515625 C-176.78563131 479.27325449 -178.61491996 477.71185449 -180.5 476.125 C-216.17406999 445.08924121 -237.88968424 394.66998124 -247.625 349.4375 C-247.78806641 348.70644043 -247.95113281 347.97538086 -248.11914062 347.22216797 C-251.18222334 333.41248325 -253.17839095 319.50530027 -254.625 305.4375 C-254.77291992 304.06960327 -254.77291992 304.06960327 -254.92382812 302.67407227 C-255.89254872 292.30584205 -255.77572072 281.91463373 -255.75537109 271.51049805 C-255.75004041 268.27452852 -255.75532696 265.03869953 -255.76171875 261.80273438 C-255.76850398 245.31707317 -255.48109658 228.95503321 -253 212.625 C-252.82887695 211.49610352 -252.65775391 210.36720703 -252.48144531 209.20410156 C-242.51147528 146.79311878 -213.95046586 87.9504635 -162.625 49.4375 C-161.19994141 48.3546875 -161.19994141 48.3546875 -159.74609375 47.25 C-124.86273303 21.25250264 -83.56933142 7.39397927 -40.625 2.4375 C-39.94387146 2.35309662 -39.26274292 2.26869324 -38.56097412 2.18173218 C-25.6948712 0.59068973 -12.96078751 -0.00426387 0 0 Z " fill="#353535" transform="translate(318.625,215.5625)"/>
<path d="M0 0 C0 44.22 0 88.44 0 134 C87.78 134 175.56 134 266 134 C265.28218617 139.02469679 264.42464587 143.79228358 263.1875 148.6875 C263.03474609 149.31849609 262.88199219 149.94949219 262.72460938 150.59960938 C261.69504341 154.7138038 260.44477654 158.71150941 259.078125 162.7265625 C256.96186506 168.98087082 255.23361668 175.30208024 253.5625 181.6875 C251.4305872 189.72408943 249.24752117 197.73196303 246.8527832 205.6940918 C244.7465849 212.74172189 242.85086501 219.84628435 240.96655273 226.95605469 C240.72493408 227.85743164 240.48331543 228.75880859 240.234375 229.6875 C239.91291504 230.89986328 239.91291504 230.89986328 239.58496094 232.13671875 C239 234 239 234 238 235 C235.9358452 235.09790609 233.86827032 235.12371208 231.80179501 235.12304783 C231.1438638 235.12420167 230.48593259 235.12535552 229.80806407 235.12654433 C227.57595179 235.12921738 225.34390986 235.12468323 223.11180115 235.12025452 C221.50639058 235.12069008 219.90098008 235.12156471 218.29556996 235.12284368 C213.8626081 235.1250916 209.42967017 235.12106332 204.99671137 235.11606562 C200.22435989 235.11176554 195.45200986 235.11320723 190.67965698 235.1139679 C182.40412003 235.11449341 174.12859093 235.11134372 165.85305595 235.10573006 C153.88787554 235.0976188 141.92269895 235.09500022 129.95751608 235.09374207 C110.54695192 235.09155095 91.13639196 235.08488927 71.72583008 235.07543945 C52.86515321 235.06626686 34.00447748 235.05918528 15.14379883 235.05493164 C13.98212027 235.05466892 12.82044172 235.05440619 11.62356078 235.05413551 C5.7960277 235.05283051 -0.03150538 235.0515668 -5.85903847 235.05032361 C-54.23936188 235.03994915 -102.61968074 235.02232924 -151 235 C-151.153836 220.95315155 -151.30180339 206.90625188 -151.4429636 192.8592701 C-151.50867644 186.33730036 -151.57629129 179.81536171 -151.64819336 173.29345703 C-151.71746214 167.00414814 -151.78181261 160.7148067 -151.84269524 154.42541122 C-151.86684479 152.02112869 -151.89279242 149.61686355 -151.92053413 147.21261978 C-151.95896938 143.85547864 -151.99111703 140.49833356 -152.02172852 137.14111328 C-152.03467453 136.13842407 -152.04762054 135.13573486 -152.06095886 134.10266113 C-152.06799835 133.19118317 -152.07503784 132.2797052 -152.08229065 131.34060669 C-152.09473485 130.14872836 -152.09473485 130.14872836 -152.10743046 128.93277168 C-152 127 -152 127 -151 125 C-150.95645022 123.04993491 -150.97932363 121.09825796 -151.03271484 119.1484375 C-151.061185 117.91955811 -151.08965515 116.69067871 -151.11898804 115.42456055 C-151.13501446 114.76531586 -151.15104088 114.10607117 -151.16755295 113.42684937 C-151.25715994 109.18893434 -151.27539929 104.95000888 -151.30389977 100.71131897 C-151.33290586 96.99260835 -151.38859539 93.27814465 -151.50390625 89.56103516 C-152.21788782 65.55839291 -152.21788782 65.55839291 -148.57183838 59.70864868 C-145.20079242 56.29027198 -141.40815468 54.39295538 -136.9367218 52.76908875 C-133.72331644 51.49301807 -131.01044675 49.5827969 -128.125 47.6875 C-93.98726147 27.20976467 -41.22631468 0 0 0 Z " fill="#7A7A7A" transform="translate(694,525)"/>
<path d="M0 0 C0.66 0.33 1.32 0.66 2 1 C1.18660156 1.55945313 0.37320312 2.11890625 -0.46484375 2.6953125 C-9.72960114 9.14841146 -18.43101776 16.15912808 -27.08447266 23.40478516 C-29.65870602 25.54855788 -32.26674697 27.64777038 -34.875 29.75 C-39.54951974 33.56622401 -44.0117469 37.58415923 -48.453125 41.66796875 C-50.58941749 43.62405252 -52.74780657 45.54187697 -54.9375 47.4375 C-62.59182154 54.1016321 -70.04570049 60.96073234 -77.1640625 68.1953125 C-78.92508612 69.92636125 -80.74225958 71.52824547 -82.625 73.125 C-91.14524536 80.46422125 -99.1650476 88.63209139 -106.4296875 97.2109375 C-108.20465381 99.2331628 -110.08299023 101.11214627 -112 103 C-115.88021703 106.8358717 -119.44951511 110.85997564 -123 115 C-123.96805642 116.11648717 -124.93687329 117.23231521 -125.90625 118.34765625 C-128.71472215 121.57925279 -131.51690826 124.81622546 -134.31689453 128.05517578 C-135.91557451 129.90244656 -137.51812137 131.74629809 -139.12109375 133.58984375 C-145.53994588 140.99573307 -151.70820508 148.55757795 -157.69726562 156.31494141 C-158.94336465 157.92674341 -160.19804745 159.53189825 -161.453125 161.13671875 C-190.60619448 198.61251935 -217.08983621 239.00875801 -238.3125 281.5 C-238.79976562 282.4746521 -238.79976562 282.4746521 -239.296875 283.46899414 C-240.75893791 286.41690869 -242.16514813 289.36965799 -243.5078125 292.375 C-246.42420721 298.74963324 -249.41571689 302.9232589 -254.94921875 307.28125 C-257.08722457 308.93738421 -257.08722457 308.93738421 -258.64453125 311.21875 C-259.09183594 311.8065625 -259.53914063 312.394375 -260 313 C-260.66 313 -261.32 313 -262 313 C-262.20238281 313.53238281 -262.40476562 314.06476563 -262.61328125 314.61328125 C-264.60030939 318.03320856 -267.34481142 320.4662428 -270.1875 323.1875 C-274.81483403 327.6967898 -279.02400242 332.24348849 -282.828125 337.48828125 C-283.21484375 337.98714844 -283.6015625 338.48601562 -284 339 C-284.33 339 -284.66 339 -285 339 C-285.54851543 331.76645273 -283.67997529 326.42158283 -281 319.75 C-280.56502197 318.645354 -280.13004395 317.54070801 -279.68188477 316.40258789 C-275.65028529 306.32186601 -271.32203114 296.36888353 -266.9375 286.4375 C-266.61096436 285.69439575 -266.28442871 284.9512915 -265.94799805 284.18566895 C-261.69956592 274.54811079 -257.09170577 265.18735743 -252.09301758 255.91723633 C-250.29059896 252.56990192 -248.58920232 249.18264803 -246.921875 245.765625 C-243.68535734 239.23471522 -239.99469593 232.99981779 -236.25 226.75 C-235.53682592 225.55443397 -234.82377387 224.35879514 -234.11083984 223.16308594 C-228.8578731 214.3684856 -223.55525222 205.60766704 -218 197 C-217.61215332 196.39897461 -217.22430664 195.79794922 -216.82470703 195.17871094 C-201.07150605 170.90244287 -183.49418191 147.47430916 -163.94140625 126.12109375 C-162.09671329 124.10566462 -160.29243431 122.06191191 -158.5 120 C-157.92765625 119.34644531 -157.3553125 118.69289063 -156.765625 118.01953125 C-155.58337138 116.66726328 -154.40631622 115.31043366 -153.234375 113.94921875 C-147.87041719 107.83557392 -142.17806295 102.0712712 -136.4375 96.3125 C-135.2323877 95.10049927 -135.2323877 95.10049927 -134.00292969 93.86401367 C-129.72131367 89.59336941 -125.36477027 85.47846249 -120.7800293 81.53491211 C-118.36522908 79.45263959 -116.02949378 77.28852147 -113.6875 75.125 C-108.28484042 70.20405904 -102.69552272 65.57582625 -97 61 C-95.89122702 60.08809011 -94.78318686 59.17528866 -93.67578125 58.26171875 C-73.04002006 41.34743982 -50.51417617 26.59526199 -27 14 C-25.91364258 13.41798828 -24.82728516 12.83597656 -23.70800781 12.23632812 C-20.6406346 10.59788564 -17.56648881 8.97268751 -14.48803711 7.35516357 C-13.24898913 6.70328729 -12.01118551 6.04904013 -10.7746582 5.39239502 C-9.03371568 4.46966733 -7.2865064 3.55879297 -5.5390625 2.6484375 C-4.52021973 2.11395996 -3.50137695 1.57948242 -2.45166016 1.02880859 C-1.6426123 0.68930176 -0.83356445 0.34979492 0 0 Z " fill="#FCFCFC" transform="translate(765,309)"/>
<path d="M0 0 C0 0.99 0 1.98 0 3 C-0.61875 3.2475 -1.2375 3.495 -1.875 3.75 C-4.1155326 4.80820031 -4.1155326 4.80820031 -4.92919922 6.86230469 C-6.10072197 9.20107651 -7.39651685 10.62567109 -9.2578125 12.453125 C-9.88300781 13.071875 -10.50820312 13.690625 -11.15234375 14.328125 C-11.80332031 14.96234375 -12.45429688 15.5965625 -13.125 16.25 C-13.78371094 16.8996875 -14.44242188 17.549375 -15.12109375 18.21875 C-16.74296643 19.81711727 -18.3693281 21.41061897 -20 23 C-20.66 22.34 -21.32 21.68 -22 21 C-19.08746667 18.05837714 -16.16926768 15.1224386 -13.25 12.1875 C-12.0125 10.93743164 -12.0125 10.93743164 -10.75 9.66210938 C-9.95078125 8.85966797 -9.1515625 8.05722656 -8.328125 7.23046875 C-7.5949707 6.49207764 -6.86181641 5.75368652 -6.10644531 4.99291992 C-4.16159961 3.15289032 -2.17626604 1.55478295 0 0 Z " fill="#3F3F3F" transform="translate(146,273)"/>
<path d="M0 0 C0.33 0 0.66 0 1 0 C1.21268657 11.95771144 1.21268657 11.95771144 0 16 C-2.0625 17.375 -2.0625 17.375 -4 18 C-3.41632611 11.69632197 -1.95928381 6.01339937 0 0 Z " fill="#3D3D3D" transform="translate(480,533)"/>
<path d="M0 0 C2.46221297 3.69331946 2.11938241 5.21253608 1.75 9.5625 C1.66234375 10.71878906 1.5746875 11.87507813 1.484375 13.06640625 C1 16 1 16 -1 18 C-1.02717692 15.93757383 -1.0464758 13.87504297 -1.0625 11.8125 C-1.07410156 10.66394531 -1.08570313 9.51539063 -1.09765625 8.33203125 C-1.01192832 5.40699414 -0.67849023 2.83683709 0 0 Z " fill="#4D4D4D" transform="translate(469,459)"/>
<path d="M0 0 C0.66 0.33 1.32 0.66 2 1 C0.23871656 2.36656457 -1.53436088 3.71794085 -3.3125 5.0625 C-4.29863281 5.81660156 -5.28476562 6.57070313 -6.30078125 7.34765625 C-7.63689453 8.16556641 -7.63689453 8.16556641 -9 9 C-9.99 8.67 -10.98 8.34 -12 8 C-12 7.34 -12 6.68 -12 6 C-10.04669132 4.96958487 -8.08718472 3.9509107 -6.125 2.9375 C-5.03445313 2.36902344 -3.94390625 1.80054688 -2.8203125 1.21484375 C-1.42425781 0.61349609 -1.42425781 0.61349609 0 0 Z " fill="#EBEBEB" transform="translate(765,309)"/>
</svg>
