<?xml version="1.0" encoding="UTF-8"?>
<svg version="1.1" xmlns="http://www.w3.org/2000/svg" width="530" height="530" viewBox="0 0 530 530">
<path d="M0 0 C15.29989923 -0.40722165 30.53091982 0.88536215 45.77294922 2.07080078 C44.51607286 5.9393903 43.11874945 9.62184969 41.41357422 13.31738281 C29.65339051 38.94607264 24.82102369 67.08325534 19.71044922 94.63330078 C17.10389752 108.6608197 14.49986682 122.56948171 9.77294922 136.07080078 C9.41402588 137.09681396 9.41402588 137.09681396 9.04785156 138.14355469 C-1.93678284 168.76716187 -22.77189247 191.90178198 -51.83300781 206.23535156 C-86.59616306 222.51577736 -126.44524747 224.30605485 -164.22705078 224.07080078 C-164.72205078 222.09080078 -164.72205078 222.09080078 -165.22705078 220.07080078 C-164.56705078 220.07080078 -163.90705078 220.07080078 -163.22705078 220.07080078 C-163.09169922 219.42498047 -162.95634766 218.77916016 -162.81689453 218.11376953 C-156.80998041 191.82003169 -144.28126017 167.31938798 -129.76074219 144.79638672 C-129.30231934 144.07999023 -128.84389648 143.36359375 -128.37158203 142.62548828 C-127.75246948 141.67005127 -127.75246948 141.67005127 -127.12084961 140.6953125 C-126.06636739 139.08777982 -126.06636739 139.08777982 -126.22705078 137.07080078 C-125.23705078 137.07080078 -124.24705078 137.07080078 -123.22705078 137.07080078 C-122.95844238 136.32983154 -122.68983398 135.5888623 -122.41308594 134.82543945 C-121.26639241 132.1621741 -120.04029857 130.26061791 -118.25048828 127.99658203 C-117.66630127 127.25166504 -117.08211426 126.50674805 -116.48022461 125.73925781 C-115.55052856 124.57305908 -115.55052856 124.57305908 -114.60205078 123.38330078 C-113.96614014 122.57747559 -113.33022949 121.77165039 -112.67504883 120.94140625 C-111.41905548 119.35149661 -110.16058652 117.7635389 -108.89941406 116.17773438 C-107.55971474 114.4899088 -106.2330012 112.79177915 -104.91064453 111.09033203 C-100.52160027 105.47345493 -95.78796179 100.2140074 -90.93408203 95.00048828 C-88.56542454 92.43700615 -86.26834474 89.82798405 -83.97705078 87.19580078 C-75.63459666 77.91649353 -66.16511828 69.64929022 -56.72705078 61.50830078 C-56.17637939 61.03215332 -55.62570801 60.55600586 -55.05834961 60.06542969 C-51.26375072 56.83327021 -47.31405829 53.92448153 -43.22705078 51.07080078 C-64.77350056 61.46179562 -83.64788924 73.71959537 -101.22705078 90.07080078 C-102.57727991 91.24202226 -103.93131569 92.40887311 -105.28955078 93.57080078 C-120.26379461 106.64307413 -133.23324545 122.5446289 -144.22705078 139.07080078 C-144.60619629 139.62300293 -144.9853418 140.17520508 -145.37597656 140.74414062 C-157.0758005 157.79789097 -166.92937569 176.15381076 -173.95751953 195.62158203 C-174.9182334 198.2317677 -175.90499717 200.63346023 -177.22705078 203.07080078 C-181.57547104 190.8349862 -182.83417203 177.97184255 -183.22705078 165.07080078 C-183.25428223 164.37792969 -183.28151367 163.68505859 -183.30957031 162.97119141 C-184.79009566 122.26140004 -169.98753609 87.46447301 -142.68408203 57.69580078 C-141.87326172 56.82955078 -141.06244141 55.96330078 -140.22705078 55.07080078 C-139.34404297 54.12205078 -138.46103516 53.17330078 -137.55126953 52.19580078 C-124.97838917 38.98626406 -110.4064519 29.33584279 -94.22705078 21.07080078 C-93.57881348 20.73709473 -92.93057617 20.40338867 -92.26269531 20.05957031 C-63.64191177 5.50700841 -31.76374212 1.00980982 0 0 Z " fill="#000000" transform="translate(470.22705078125,178.92919921875)"/>
<path d="M0 0 C1.61057654 1.51404357 3.21510435 3.03455633 4.8125 4.5625 C5.50085938 5.17609375 6.18921875 5.7896875 6.8984375 6.421875 C27.03504785 25.04624979 34.46265081 55.12663007 35.8125 81.5625 C37.14803828 116.26164799 31.84299317 149.93769201 7.64599609 176.29736328 C-10.6921373 195.3476572 -37.20862865 203.8071093 -63.1875 204.5625 C-63.82800293 204.58296387 -64.46850586 204.60342773 -65.12841797 204.62451172 C-94.6127369 205.44710858 -123.70674768 200.57072807 -147.1875 181.5625 C-148.11046875 180.86640625 -149.0334375 180.1703125 -149.984375 179.453125 C-151.07492188 178.51726562 -151.07492188 178.51726562 -152.1875 177.5625 C-152.1875 176.9025 -152.1875 176.2425 -152.1875 175.5625 C-152.8475 175.5625 -153.5075 175.5625 -154.1875 175.5625 C-155.84604429 173.68261433 -157.36883388 171.80988039 -158.875 169.8125 C-159.32198242 169.22049805 -159.76896484 168.62849609 -160.22949219 168.01855469 C-170.4266142 154.29306742 -176.20462185 139.66140694 -179.64453125 123.00390625 C-180.08198915 120.57154563 -180.08198915 120.57154563 -181.1875 118.5625 C-181.60230676 113.90777866 -181.72011982 109.23240729 -181.875 104.5625 C-181.8980722 103.8697699 -181.92114441 103.17703979 -181.94491577 102.46331787 C-183.02298506 67.61293472 -178.55189493 32.43539402 -154.2421875 5.67578125 C-150.79209067 2.0486718 -147.00766085 -1.05184907 -142.953125 -3.984375 C-142.37046875 -4.46390625 -141.7878125 -4.9434375 -141.1875 -5.4375 C-141.1875 -6.0975 -141.1875 -6.7575 -141.1875 -7.4375 C-140.671875 -7.52644531 -140.15625 -7.61539063 -139.625 -7.70703125 C-136.93733866 -8.51246822 -134.62351368 -9.73796495 -132.16064453 -11.06616211 C-122.80796761 -16.0850386 -113.22078318 -19.14939816 -102.99658203 -21.90014648 C-101.11157589 -22.40295111 -101.11157589 -22.40295111 -99.1875 -23.4375 C-96.63993216 -23.67800466 -94.116057 -23.86373912 -91.5625 -24 C-90.42059204 -24.06151245 -90.42059204 -24.06151245 -89.25561523 -24.12426758 C-57.38091103 -25.71619004 -24.8531149 -21.98689831 0 0 Z M-111.00390625 32.1640625 C-125.97105006 48.60382332 -128.02897551 74.39615441 -127.1875 95.5625 C-125.8776759 116.092467 -121.79909808 135.96734987 -106.1875 150.5625 C-98.16690879 157.4161912 -87.63642363 160.75873664 -77.1875 161.5625 C-76.55199219 161.6140625 -75.91648438 161.665625 -75.26171875 161.71875 C-61.99804293 162.30070287 -49.87061714 157.87912091 -39.4375 149.875 C-25.57425958 137.10622593 -21.36092849 116.63633642 -20.3125 98.66015625 C-20.27125 97.63792969 -20.23 96.61570312 -20.1875 95.5625 C-20.14625 94.61246094 -20.105 93.66242188 -20.0625 92.68359375 C-19.60719909 71.76820823 -23.62738179 47.30462706 -38.4375 31.5 C-59.21956994 12.73141781 -90.7282235 12.63452488 -111.00390625 32.1640625 Z " fill="#000000" transform="translate(197.1875,203.4375)"/>
<path d="M0 0 C-1.07071553 3.33286453 -2.22284126 6.61137153 -3.515625 9.86328125 C-7.9605433 21.17913652 -11.0462748 32.56877395 -13.73828125 44.41796875 C-13.96741211 45.37622559 -14.19654297 46.33448242 -14.43261719 47.32177734 C-15.04512032 49.92759128 -15.04512032 49.92759128 -15.18457031 52.33837891 C-15.41015625 54.42578125 -15.41015625 54.42578125 -17 58 C-20.81348015 60.32414484 -24.89492092 61.61914525 -29.125 63 C-31.50992645 63.84562399 -33.89275577 64.69718613 -36.2734375 65.5546875 C-37.43198242 65.96686523 -38.59052734 66.37904297 -39.78417969 66.80371094 C-46.48313413 69.29573013 -52.73950955 72.57651118 -59 76 C-59.60199219 76.32178223 -60.20398438 76.64356445 -60.82421875 76.97509766 C-90.45054995 92.85424266 -117.3151047 118.47935554 -132 149 C-132.99 148.67 -133.98 148.34 -135 148 C-124.99760099 111.36242485 -104.86792819 85.30312986 -78.01171875 59.07421875 C-75.95591117 57.16322322 -75.95591117 57.16322322 -75 55 C-86.71843971 61.64224924 -97.58587729 69.2167442 -107.26904297 78.59643555 C-110.80875 82 -110.80875 82 -113 82 C-113.23589844 82.55945313 -113.47179687 83.11890625 -113.71484375 83.6953125 C-115.30237404 86.54225132 -117.29130425 88.53627261 -119.5625 90.875 C-141.24306066 114.06724003 -150.20879178 146.90207707 -151 178 C-151.03996094 178.9384375 -151.07992188 179.876875 -151.12109375 180.84375 C-151.42757097 193.39128779 -150.32131735 206.66146633 -148 219 C-148.66 219.33 -149.32 219.66 -150 220 C-172.48627437 187.74933092 -183.86286128 152.09012554 -176.8125 112.5 C-169.74240428 80.09539462 -150.74961609 55.2569024 -123.12158203 37.34326172 C-110.67052346 29.4599793 -96.5680997 20.89690701 -82 18 C-81.67 17.34 -81.34 16.68 -81 16 C-78.94213867 15.26928711 -78.94213867 15.26928711 -76.23046875 14.58984375 C-75.23063965 14.33315918 -74.23081055 14.07647461 -73.20068359 13.81201172 C-72.14445801 13.54404785 -71.08823242 13.27608398 -70 13 C-67.95361367 12.44177544 -65.90804771 11.88053549 -63.86328125 11.31640625 C-43.51327093 5.82631225 -21.25848893 0 0 0 Z " fill="#000000" transform="translate(426,116)"/>
<path d="" fill="#000000" transform="translate(0,0)"/>
<path d="" fill="#000000" transform="translate(0,0)"/>
<path d="M0 0 C2 1 2 1 2 1 Z " fill="#000000" transform="translate(416,236)"/>
<path d="M0 0 C2 1 2 1 2 1 Z " fill="#000000" transform="translate(129,223)"/>
<path d="M0 0 C2 1 2 1 2 1 Z " fill="#000000" transform="translate(401,188)"/>
<path d="" fill="#000000" transform="translate(0,0)"/>
<path d="" fill="#000000" transform="translate(0,0)"/>
<path d="" fill="#000000" transform="translate(0,0)"/>
<path d="" fill="#000000" transform="translate(0,0)"/>
<path d="" fill="#000000" transform="translate(0,0)"/>
<path d="" fill="#000000" transform="translate(0,0)"/>
<path d="" fill="#000000" transform="translate(0,0)"/>
<path d="" fill="#000000" transform="translate(0,0)"/>
<path d="" fill="#000000" transform="translate(0,0)"/>
<path d="" fill="#000000" transform="translate(0,0)"/>
<path d="" fill="#000000" transform="translate(0,0)"/>
<path d="" fill="#000000" transform="translate(0,0)"/>
<path d="" fill="#000000" transform="translate(0,0)"/>
<path d="" fill="#000000" transform="translate(0,0)"/>
<path d="" fill="#000000" transform="translate(0,0)"/>
<path d="" fill="#000000" transform="translate(0,0)"/>
<path d="" fill="#000000" transform="translate(0,0)"/>
<path d="" fill="#000000" transform="translate(0,0)"/>
<path d="" fill="#000000" transform="translate(0,0)"/>
<path d="" fill="#000000" transform="translate(0,0)"/>
<path d="" fill="#000000" transform="translate(0,0)"/>
<path d="" fill="#000000" transform="translate(0,0)"/>
<path d="" fill="#000000" transform="translate(0,0)"/>
<path d="" fill="#000000" transform="translate(0,0)"/>
<path d="" fill="#000000" transform="translate(0,0)"/>
<path d="" fill="#000000" transform="translate(0,0)"/>
<path d="" fill="#000000" transform="translate(0,0)"/>
<path d="" fill="#000000" transform="translate(0,0)"/>
<path d="" fill="#000000" transform="translate(0,0)"/>
<path d="" fill="#000000" transform="translate(0,0)"/>
<path d="" fill="#000000" transform="translate(0,0)"/>
<path d="" fill="#000000" transform="translate(0,0)"/>
<path d="" fill="#000000" transform="translate(0,0)"/>
<path d="" fill="#000000" transform="translate(0,0)"/>
<path d="" fill="#000000" transform="translate(0,0)"/>
<path d="" fill="#000000" transform="translate(0,0)"/>
<path d="" fill="#000000" transform="translate(0,0)"/>
<path d="" fill="#000000" transform="translate(0,0)"/>
<path d="" fill="#000000" transform="translate(0,0)"/>
<path d="" fill="#000000" transform="translate(0,0)"/>
<path d="" fill="#000000" transform="translate(0,0)"/>
<path d="" fill="#000000" transform="translate(0,0)"/>
<path d="" fill="#000000" transform="translate(0,0)"/>
<path d="" fill="#000000" transform="translate(0,0)"/>
</svg>
